<?xml version="1.0" encoding="utf-8"?>
<!-- Generator: Adobe Illustrator 22.0.1, SVG Export Plug-In . SVG Version: 6.00 Build 0)  -->
<svg version="1.1" id="Layer_1" xmlns="http://www.w3.org/2000/svg" xmlns:xlink="http://www.w3.org/1999/xlink" x="0px" y="0px"
	 viewBox="0 0 327.7 94" style="enable-background:new 0 0 327.7 94;" xml:space="preserve">
<style type="text/css">
	.st0{fill:#34D9C3;}
</style>
<title>Asset 25</title>
<g id="Layer_2_1_">
	<g id="Layer_4">
		<path class="st0" d="M72.1,70.6c-13,0-23.6-10.6-23.6-23.6s10.6-23.6,23.6-23.6S95.7,34,95.7,47c0,0,0,0,0,0
			C95.7,60,85.1,70.6,72.1,70.6z M72.1,32.2c-8.1,0-14.7,6.6-14.7,14.8S64,61.7,72.1,61.7c8.1,0,14.7-6.6,14.8-14.7
			C86.9,38.9,80.3,32.3,72.1,32.2z"/>
		<path class="st0" d="M121.8,70.6c-13,0-23.6-10.6-23.6-23.6c0-13,10.6-23.6,23.6-23.6S145.4,34,145.4,47c0,0,0,0,0,0
			C145.4,60,134.8,70.6,121.8,70.6z M121.8,32.2c-8.1,0-14.7,6.6-14.7,14.8c0,8.1,6.6,14.7,14.8,14.7c8.1,0,14.7-6.6,14.7-14.7
			C136.6,38.9,130,32.3,121.8,32.2z"/>
		<path class="st0" d="M233.4,70.6c-13,0-23.6-10.6-23.6-23.6s10.6-23.6,23.6-23.6c13,0,23.6,10.6,23.6,23.6
			C257,60,246.4,70.6,233.4,70.6z M233.4,32.2c-8.1,0-14.8,6.6-14.8,14.8s6.6,14.8,14.8,14.8c8.1,0,14.7-6.6,14.8-14.7
			C248.1,38.9,241.5,32.3,233.4,32.2z"/>
		<path class="st0" d="M47.2,46.8c-0.1-13-10.8-23.5-23.8-23.4c-13,0.1-23.5,10.8-23.4,23.8s10.8,23.5,23.8,23.4
			c5.3,0,10.4-1.9,14.6-5.2v5c0,8.1-6.6,14.7-14.8,14.7c-5.8,0-11.1-3.4-13.4-8.7H0.8C4.1,89,17,96.5,29.6,93.2
			C40,90.4,47.2,81.1,47.2,70.4L47.2,46.8L47.2,46.8z M23.6,61.8c-8.1,0-14.7-6.6-14.7-14.8c0-8.1,6.6-14.8,14.8-14.7
			c8.1,0,14.7,6.6,14.7,14.7C38.3,55.1,31.7,61.7,23.6,61.8L23.6,61.8z"/>
		<path class="st0" d="M186.7,0v28.6c-10.2-8.1-25-6.5-33.1,3.7c-8.1,10.2-6.5,25,3.7,33.1s25,6.5,33.1-3.7
			c3.4-4.2,5.2-9.4,5.2-14.7V0H186.7z M171.9,61.7c-8.1,0-14.8-6.6-14.8-14.8s6.6-14.7,14.8-14.7c8.1,0,14.8,6.6,14.8,14.8
			c0,0,0,0,0,0C186.6,55.1,180,61.7,171.9,61.7z"/>
		<path class="st0" d="M318.9,0v28.6c-10.2-8.1-25-6.5-33.1,3.7c-8.1,10.2-6.5,25,3.7,33.1s25,6.5,33.1-3.7
			c3.4-4.2,5.2-9.4,5.2-14.7V0H318.9z M304.1,61.7c-8.1,0-14.8-6.6-14.8-14.8s6.6-14.7,14.8-14.7c8.1,0,14.8,6.6,14.8,14.8
			c0,0,0,0,0,0C318.8,55.1,312.2,61.7,304.1,61.7z"/>
		<rect x="198.1" y="0" class="st0" width="8.8" height="70.4"/>
		<path class="st0" d="M268.5,70.4h-8.8V47c0-13,10.6-23.6,23.6-23.6v8.8c-8.1,0-14.7,6.6-14.8,14.8V70.4z"/>
	</g>
</g>
</svg>
